<svg width="16" height="16" viewBox="0 0 16 16" fill="none" xmlns="http://www.w3.org/2000/svg">
<path fill-rule="evenodd" clip-rule="evenodd" d="M13.5 0L12.7125 1.71875L11 2.5L12.7125 3.2875L13.5 5L14.2812 3.2875L16 2.5L14.2812 1.71875L13.5 0ZM6.58203 8.75065C6.97092 9.13954 7.44314 9.33398 7.9987 9.33398C8.55425 9.33398 9.02648 9.13954 9.41536 8.75065C9.80425 8.36176 9.9987 7.88954 9.9987 7.33398V3.33398C9.9987 2.77843 9.80425 2.30621 9.41536 1.91732C9.02648 1.52843 8.55425 1.33398 7.9987 1.33398C7.44314 1.33398 6.97092 1.52843 6.58203 1.91732C6.19314 2.30621 5.9987 2.77843 5.9987 3.33398V7.33398C5.9987 7.88954 6.19314 8.36176 6.58203 8.75065ZM7.33203 11.9507V14.0007H8.66536V11.9507C9.82092 11.7951 10.7765 11.2784 11.532 10.4007C12.2876 9.52287 12.6654 8.50065 12.6654 7.33398H11.332C11.332 8.25621 11.007 9.04232 10.357 9.69232C9.70703 10.3423 8.92092 10.6673 7.9987 10.6673C7.07648 10.6673 6.29036 10.3423 5.64036 9.69232C4.99036 9.04232 4.66536 8.25621 4.66536 7.33398H3.33203C3.33203 8.50065 3.70981 9.52287 4.46536 10.4007C5.22092 11.2784 6.17648 11.7951 7.33203 11.9507Z" fill="white"/>
</svg>
