<svg width="48" height="48" viewBox="0 0 48 48" fill="none" xmlns="http://www.w3.org/2000/svg">
<path d="M7.99609 39.998C6.89609 39.998 5.95443 39.6064 5.17109 38.823C4.38776 38.0397 3.99609 37.098 3.99609 35.998V11.998C3.99609 10.898 4.38776 9.95638 5.17109 9.17305C5.95443 8.38971 6.89609 7.99805 7.99609 7.99805H31.9961C33.0961 7.99805 34.0378 8.38971 34.8211 9.17305C35.6044 9.95638 35.9961 10.898 35.9961 11.998V20.998L43.9961 12.998V34.998L35.9961 26.998V35.998C35.9961 37.098 35.6044 38.0397 34.8211 38.823C34.0378 39.6064 33.0961 39.998 31.9961 39.998H7.99609Z" fill="#AF91FF"/>
</svg>
