<svg width="19" height="21" viewBox="0 0 19 21" fill="none" xmlns="http://www.w3.org/2000/svg">
<path fill-rule="evenodd" clip-rule="evenodd" d="M15.25 0L14.0687 2.57813L11.5 3.75L14.0687 4.93125L15.25 7.5L16.4219 4.93125L19 3.75L16.4219 2.57813L15.25 0ZM4.87305 13.126C5.45638 13.7093 6.16471 14.001 6.99805 14.001C7.83138 14.001 8.53971 13.7093 9.12305 13.126C9.70638 12.5426 9.99805 11.8343 9.99805 11.001V5.00098C9.99805 4.16764 9.70638 3.45931 9.12305 2.87598C8.53971 2.29264 7.83138 2.00098 6.99805 2.00098C6.16471 2.00098 5.45638 2.29264 4.87305 2.87598C4.28971 3.45931 3.99805 4.16764 3.99805 5.00098V11.001C3.99805 11.8343 4.28971 12.5426 4.87305 13.126ZM5.99805 17.926V21.001H7.99805V17.926C9.73138 17.6926 11.1647 16.9176 12.298 15.601C13.4314 14.2843 13.998 12.751 13.998 11.001H11.998C11.998 12.3843 11.5105 13.5635 10.5355 14.5385C9.56055 15.5135 8.38138 16.001 6.99805 16.001C5.61471 16.001 4.43555 15.5135 3.46055 14.5385C2.48555 13.5635 1.99805 12.3843 1.99805 11.001H-0.00195312C-0.00195312 12.751 0.564714 14.2843 1.69805 15.601C2.83138 16.9176 4.26471 17.6926 5.99805 17.926Z" fill="#6539D9"/>
</svg>
