<svg width="22" height="22" viewBox="0 0 22 22" fill="none" xmlns="http://www.w3.org/2000/svg">
<path fill-rule="evenodd" clip-rule="evenodd" d="M21.6667 11C21.6667 16.891 16.8911 21.6666 11 21.6666C9.11451 21.6666 7.34325 21.1774 5.80627 20.319L1.79446 21.6299L2.63893 17.6241C1.19547 15.8046 0.333374 13.5029 0.333374 11C0.333374 5.10894 5.109 0.333313 11 0.333313C16.8911 0.333313 21.6667 5.10894 21.6667 11ZM5.66671 7.44442C5.66671 7.11714 5.93202 6.85183 6.2593 6.85183H15.7408C16.0681 6.85183 16.3334 7.11714 16.3334 7.44442C16.3334 7.7717 16.0681 8.03702 15.7408 8.03702H6.2593C5.93202 8.03702 5.66671 7.7717 5.66671 7.44442ZM5.66671 11C5.66671 10.6727 5.93202 10.4074 6.2593 10.4074H15.7408C16.0681 10.4074 16.3334 10.6727 16.3334 11C16.3334 11.3273 16.0681 11.5926 15.7408 11.5926H6.2593C5.93202 11.5926 5.66671 11.3273 5.66671 11ZM6.2593 13.9629C5.93202 13.9629 5.66671 14.2283 5.66671 14.5555C5.66671 14.8828 5.93202 15.1481 6.2593 15.1481H15.7408C16.0681 15.1481 16.3334 14.8828 16.3334 14.5555C16.3334 14.2283 16.0681 13.9629 15.7408 13.9629H6.2593Z" fill="white"/>
</svg>
