<svg width="18" height="18" viewBox="0 0 18 18" fill="none" xmlns="http://www.w3.org/2000/svg">
<path fill-rule="evenodd" clip-rule="evenodd" d="M17.8889 9C17.8889 13.9092 13.9092 17.8889 8.99997 17.8889C7.4287 17.8889 5.95266 17.4812 4.67184 16.7658L1.32866 17.8583L2.03238 14.5201C0.8295 13.0038 0.111084 11.0858 0.111084 9C0.111084 4.09081 4.09078 0.111115 8.99997 0.111115C13.9092 0.111115 17.8889 4.09081 17.8889 9ZM4.55553 6.03704C4.55553 5.76431 4.77662 5.54321 5.04936 5.54321H12.9506C13.2233 5.54321 13.4444 5.76431 13.4444 6.03704C13.4444 6.30977 13.2233 6.53087 12.9506 6.53087H5.04936C4.77662 6.53087 4.55553 6.30977 4.55553 6.03704ZM4.55553 9C4.55553 8.72727 4.77662 8.50618 5.04936 8.50618H12.9506C13.2233 8.50618 13.4444 8.72727 13.4444 9C13.4444 9.27274 13.2233 9.49383 12.9506 9.49383H5.04936C4.77662 9.49383 4.55553 9.27274 4.55553 9ZM5.04936 11.4691C4.77662 11.4691 4.55553 11.6902 4.55553 11.963C4.55553 12.2357 4.77662 12.4568 5.04936 12.4568H12.9506C13.2233 12.4568 13.4444 12.2357 13.4444 11.963C13.4444 11.6902 13.2233 11.4691 12.9506 11.4691H5.04936Z" fill="#6539D9"/>
</svg>
