<svg width="18" height="18" viewBox="0 0 18 18" fill="none" xmlns="http://www.w3.org/2000/svg">
<path d="M7.11646 12.7498L12.9498 8.99984L7.11646 5.24984V12.7498ZM9.19979 17.3332C8.04701 17.3332 6.96368 17.1144 5.94979 16.6769C4.9359 16.2394 4.05396 15.6457 3.30396 14.8957C2.55395 14.1457 1.96021 13.2637 1.52271 12.2498C1.08521 11.2359 0.866455 10.1526 0.866455 8.99984C0.866455 7.84706 1.08521 6.76373 1.52271 5.74984C1.96021 4.73595 2.55395 3.854 3.30396 3.104C4.05396 2.354 4.9359 1.76025 5.94979 1.32275C6.96368 0.885254 8.04701 0.666504 9.19979 0.666504C10.3526 0.666504 11.4359 0.885254 12.4498 1.32275C13.4637 1.76025 14.3456 2.354 15.0956 3.104C15.8456 3.854 16.4394 4.73595 16.8769 5.74984C17.3144 6.76373 17.5331 7.84706 17.5331 8.99984C17.5331 10.1526 17.3144 11.2359 16.8769 12.2498C16.4394 13.2637 15.8456 14.1457 15.0956 14.8957C14.3456 15.6457 13.4637 16.2394 12.4498 16.6769C11.4359 17.1144 10.3526 17.3332 9.19979 17.3332Z" fill="#AF91FF"/>
</svg>
