<svg width="76" height="24" viewBox="0 0 76 24" fill="none" xmlns="http://www.w3.org/2000/svg">
<path d="M8.05458 5.36471V8.18824H0V5.36471H8.05458ZM1.82861 2.11765H5.53807V14.7529C5.53807 15.1 5.59032 15.3706 5.69481 15.5647C5.7993 15.7529 5.94443 15.8853 6.13019 15.9618C6.32176 16.0382 6.54235 16.0765 6.79197 16.0765C6.96613 16.0765 7.14028 16.0618 7.31443 16.0324C7.48858 15.9971 7.6221 15.9706 7.71498 15.9529L8.2984 18.75C8.11263 18.8088 7.8514 18.8765 7.51471 18.9529C7.17801 19.0353 6.76875 19.0853 6.28693 19.1029C5.39294 19.1382 4.60925 19.0176 3.93586 18.7412C3.26827 18.4647 2.74872 18.0353 2.37719 17.4529C2.00566 16.8706 1.8228 16.1353 1.82861 15.2471V2.11765Z" fill="#1D253F"/>
<path d="M16.4226 19.1824C15.0468 19.1824 13.8626 18.9 12.8699 18.3353C11.883 17.7647 11.1226 16.9588 10.5885 15.9176C10.0544 14.8706 9.78741 13.6324 9.78741 12.2029C9.78741 10.8088 10.0544 9.58529 10.5885 8.53235C11.1226 7.47941 11.8743 6.65882 12.8438 6.07059C13.8191 5.48235 14.9627 5.18824 16.2746 5.18824C17.157 5.18824 17.9784 5.33235 18.7389 5.62059C19.5051 5.90294 20.1727 6.32941 20.7416 6.9C21.3163 7.47059 21.7633 8.18824 22.0826 9.05294C22.4019 9.91177 22.5615 10.9176 22.5615 12.0706V13.1029H11.2677V10.7735H19.0698C19.0698 10.2324 18.9537 9.75294 18.7215 9.33529C18.4893 8.91765 18.1671 8.59118 17.7549 8.35588C17.3486 8.11471 16.8754 7.99412 16.3356 7.99412C15.7725 7.99412 15.2732 8.12647 14.8378 8.39118C14.4083 8.65 14.0716 9 13.8278 9.44118C13.5839 9.87647 13.4591 10.3618 13.4533 10.8971V13.1118C13.4533 13.7824 13.5752 14.3618 13.8191 14.85C14.0687 15.3382 14.4199 15.7147 14.8727 15.9794C15.3255 16.2441 15.8624 16.3765 16.4836 16.3765C16.8958 16.3765 17.2731 16.3176 17.6156 16.2C17.9581 16.0824 18.2512 15.9059 18.4951 15.6706C18.7389 15.4353 18.9246 15.1471 19.0524 14.8059L22.4832 15.0353C22.309 15.8706 21.952 16.6 21.4121 17.2235C20.8781 17.8412 20.1873 18.3235 19.3397 18.6706C18.498 19.0118 17.5256 19.1824 16.4226 19.1824Z" fill="#1D253F"/>
<path d="M28.6917 0.847059V18.9176H24.9823V0.847059H28.6917Z" fill="#1D253F"/>
<path d="M35.3727 0.847059V18.9176H31.6632V0.847059H35.3727Z" fill="#1D253F"/>
<path d="M60.5748 5.36471V8.18824H52.32V5.36471H60.5748ZM54.2095 18.9176V4.38529C54.2095 3.40294 54.3982 2.58824 54.7755 1.94118C55.1587 1.29412 55.6811 0.808823 56.3429 0.485294C57.0047 0.161765 57.7564 0 58.5982 0C59.1671 0 59.6866 0.044118 60.1568 0.132354C60.6329 0.220589 60.987 0.300001 61.2192 0.370589L60.5574 3.19412C60.4123 3.14706 60.2323 3.10294 60.0175 3.06176C59.8085 3.02059 59.5938 3 59.3732 3C58.8275 3 58.4472 3.12941 58.2325 3.38824C58.0177 3.64118 57.9103 3.99706 57.9103 4.45588V18.9176H54.2095Z" fill="#1D253F"/>
<path d="M65.1311 24C64.6609 24 64.2197 23.9618 63.8075 23.8853C63.4012 23.8147 63.0645 23.7235 62.7974 23.6118L63.6334 20.8059C64.0688 20.9412 64.4606 21.0147 64.8089 21.0265C65.163 21.0382 65.4678 20.9559 65.7232 20.7794C65.9844 20.6029 66.1963 20.3029 66.3589 19.8794L66.5766 19.3059L61.7786 5.36471H65.6797L68.4487 15.3176H68.588L71.3832 5.36471H75.3103L70.1119 20.3824C69.8623 21.1118 69.5227 21.7471 69.0931 22.2882C68.6693 22.8353 68.1323 23.2559 67.4822 23.55C66.832 23.85 66.0483 24 65.1311 24Z" fill="#1D253F"/>
<path fill-rule="evenodd" clip-rule="evenodd" d="M52 12C52 15.9764 48.7765 19.2 44.8 19.2C43.5274 19.2 42.3318 18.8698 41.2944 18.2904L38.5862 19.1754L39.1563 16.4713C38.1819 15.2431 37.6 13.6895 37.6 12C37.6 8.02355 40.8236 4.8 44.8 4.8C48.7765 4.8 52 8.02355 52 12ZM41.2 9.6C41.2 9.37909 41.3791 9.2 41.6 9.2H48C48.2209 9.2 48.4 9.37909 48.4 9.6C48.4 9.82091 48.2209 10 48 10H41.6C41.3791 10 41.2 9.82091 41.2 9.6ZM41.2 12C41.2 11.7791 41.3791 11.6 41.6 11.6H48C48.2209 11.6 48.4 11.7791 48.4 12C48.4 12.2209 48.2209 12.4 48 12.4H41.6C41.3791 12.4 41.2 12.2209 41.2 12ZM41.6 14C41.3791 14 41.2 14.1791 41.2 14.4C41.2 14.6209 41.3791 14.8 41.6 14.8H48C48.2209 14.8 48.4 14.6209 48.4 14.4C48.4 14.1791 48.2209 14 48 14H41.6Z" fill="#8663E2"/>
</svg>
