<svg width="20" height="20" viewBox="0 0 20 20" fill="none" xmlns="http://www.w3.org/2000/svg">
<path fill-rule="evenodd" clip-rule="evenodd" d="M16.875 0L15.8906 2.14844L13.75 3.125L15.8906 4.10938L16.875 6.25L17.8516 4.10938L20 3.125L17.8516 2.14844L16.875 0ZM8.22754 10.9383C8.71365 11.4244 9.30393 11.6675 9.99837 11.6675C10.6928 11.6675 11.2831 11.4244 11.7692 10.9383C12.2553 10.4522 12.4984 9.86193 12.4984 9.16748V4.16748C12.4984 3.47304 12.2553 2.88276 11.7692 2.39665C11.2831 1.91054 10.6928 1.66748 9.99837 1.66748C9.30393 1.66748 8.71365 1.91054 8.22754 2.39665C7.74143 2.88276 7.49837 3.47304 7.49837 4.16748V9.16748C7.49837 9.86193 7.74143 10.4522 8.22754 10.9383ZM9.16504 14.9383V17.5008H10.8317V14.9383C12.2761 14.7439 13.4706 14.098 14.415 13.0008C15.3595 11.9036 15.8317 10.6258 15.8317 9.16748H14.165C14.165 10.3203 13.7588 11.3029 12.9463 12.1154C12.1338 12.9279 11.1512 13.3341 9.99837 13.3341C8.84559 13.3341 7.86296 12.9279 7.05046 12.1154C6.23796 11.3029 5.83171 10.3203 5.83171 9.16748H4.16504C4.16504 10.6258 4.63726 11.9036 5.58171 13.0008C6.52615 14.098 7.72059 14.7439 9.16504 14.9383Z" fill="#AF91FF"/>
</svg>
