<svg width="9" height="14" viewBox="0 0 9 14" fill="none" xmlns="http://www.w3.org/2000/svg">
<path d="M8.66666 12.0002C8.66666 12.9206 7.92047 13.6668 6.99999 13.6668C6.07952 13.6668 5.33333 12.9206 5.33333 12.0002C5.33333 11.0797 6.07952 10.3335 6.99999 10.3335C7.92047 10.3335 8.66666 11.0797 8.66666 12.0002ZM3.66666 12.0002C3.66666 12.9206 2.92047 13.6668 1.99999 13.6668C1.07952 13.6668 0.333328 12.9206 0.333328 12.0002C0.333328 11.0797 1.07952 10.3335 1.99999 10.3335C2.92047 10.3335 3.66666 11.0797 3.66666 12.0002ZM8.66666 7.00016C8.66666 7.92064 7.92047 8.66683 6.99999 8.66683C6.07952 8.66683 5.33333 7.92064 5.33333 7.00016C5.33333 6.07969 6.07952 5.3335 6.99999 5.3335C7.92047 5.3335 8.66666 6.07969 8.66666 7.00016ZM1.99999 8.66683C1.07952 8.66683 0.333328 7.92064 0.333328 7.00016C0.333328 6.07969 1.07952 5.3335 1.99999 5.3335C2.92047 5.3335 3.66666 6.07969 3.66666 7.00016C3.66666 7.44219 3.49107 7.86611 3.17851 8.17867C2.86595 8.49123 2.44202 8.66683 1.99999 8.66683ZM8.66666 2.00016C8.66666 2.92064 7.92047 3.66683 6.99999 3.66683C6.07952 3.66683 5.33333 2.92064 5.33333 2.00016C5.33333 1.07969 6.07952 0.333496 6.99999 0.333496C7.92047 0.333496 8.66666 1.07969 8.66666 2.00016ZM3.66666 2.00016C3.66666 2.92064 2.92047 3.66683 1.99999 3.66683C1.07952 3.66683 0.333328 2.92064 0.333328 2.00016C0.333328 1.07969 1.07952 0.333496 1.99999 0.333496C2.92047 0.333496 3.66666 1.07969 3.66666 2.00016Z" fill="#AF91FF"/>
</svg>
