<svg width="16" height="16" viewBox="0 0 16 16" fill="none" xmlns="http://www.w3.org/2000/svg">
<path d="M7.33331 11.3333H8.66665V8.66658H11.3333V7.33325H8.66665V4.66658H7.33331V7.33325H4.66665V8.66658H7.33331V11.3333ZM7.99998 14.6666C7.07776 14.6666 6.21109 14.4916 5.39998 14.1416C4.58887 13.7916 3.88331 13.3166 3.28331 12.7166C2.68331 12.1166 2.20831 11.411 1.85831 10.5999C1.50831 9.78881 1.33331 8.92214 1.33331 7.99992C1.33331 7.0777 1.50831 6.21103 1.85831 5.39992C2.20831 4.58881 2.68331 3.88325 3.28331 3.28325C3.88331 2.68325 4.58887 2.20825 5.39998 1.85825C6.21109 1.50825 7.07776 1.33325 7.99998 1.33325C8.9222 1.33325 9.78887 1.50825 10.6 1.85825C11.4111 2.20825 12.1166 2.68325 12.7166 3.28325C13.3166 3.88325 13.7916 4.58881 14.1416 5.39992C14.4916 6.21103 14.6666 7.0777 14.6666 7.99992C14.6666 8.92214 14.4916 9.78881 14.1416 10.5999C13.7916 11.411 13.3166 12.1166 12.7166 12.7166C12.1166 13.3166 11.4111 13.7916 10.6 14.1416C9.78887 14.4916 8.9222 14.6666 7.99998 14.6666Z" fill="#6539D9"/>
</svg>
