<svg width="15" height="14" viewBox="0 0 15 14" fill="none" xmlns="http://www.w3.org/2000/svg">
<path d="M4.00008 0H10.6667V8.66667L6.00008 13.3333L5.16675 12.5C5.08897 12.4222 5.02508 12.3167 4.97508 12.1833C4.92508 12.05 4.90008 11.9222 4.90008 11.8V11.5667L5.63342 8.66667H2.00008C1.64453 8.66667 1.33341 8.53333 1.06675 8.26667C0.800081 8 0.666748 7.68889 0.666748 7.33333V6C0.666748 5.92222 0.675081 5.83889 0.691748 5.75C0.708415 5.66111 0.733415 5.57778 0.766748 5.5L2.76675 0.8C2.86675 0.577778 3.03341 0.388889 3.26675 0.233333C3.50008 0.0777778 3.74453 0 4.00008 0ZM12.0001 8.66667V0H14.6667V8.66667H12.0001Z" fill="#8663E2"/>
</svg>
