<svg width="16" height="16" viewBox="0 0 16 16" fill="none" xmlns="http://www.w3.org/2000/svg">
<mask id="mask0_89_1379" style="mask-type:alpha" maskUnits="userSpaceOnUse" x="0" y="0" width="16" height="16">
<rect width="16" height="16" fill="#D9D9D9"/>
</mask>
<g mask="url(#mask0_89_1379)">
<path d="M11.9999 14L5.33325 14L5.33325 5.33335L9.99992 0.666687L10.8333 1.50002C10.911 1.5778 10.9749 1.68335 11.0249 1.81669C11.0749 1.95002 11.0999 2.0778 11.0999 2.20002V2.43335L10.3666 5.33335L13.9999 5.33335C14.3555 5.33335 14.6666 5.46669 14.9333 5.73335C15.1999 6.00002 15.3333 6.31113 15.3333 6.66669L15.3333 8.00002C15.3333 8.0778 15.3249 8.16113 15.3083 8.25002C15.2916 8.33891 15.2666 8.42224 15.2333 8.50002L13.2333 13.2C13.1333 13.4222 12.9666 13.6111 12.7333 13.7667C12.4999 13.9222 12.2555 14 11.9999 14ZM3.99992 5.33335L3.99992 14H1.33325L1.33325 5.33335H3.99992Z" fill="#8663E2"/>
</g>
</svg>
