<svg width="20" height="20" viewBox="0 0 20 20" fill="none" xmlns="http://www.w3.org/2000/svg">
<path d="M3.33171 16.6659C2.87337 16.6659 2.48101 16.5027 2.15462 16.1763C1.82823 15.8499 1.66504 15.4575 1.66504 14.9992V4.99919C1.66504 4.54085 1.82823 4.14849 2.15462 3.8221C2.48101 3.49571 2.87337 3.33252 3.33171 3.33252H13.3317C13.79 3.33252 14.1824 3.49571 14.5088 3.8221C14.8352 4.14849 14.9984 4.54085 14.9984 4.99919V8.74919L18.3317 5.41585V14.5825L14.9984 11.2492V14.9992C14.9984 15.4575 14.8352 15.8499 14.5088 16.1763C14.1824 16.5027 13.79 16.6659 13.3317 16.6659H3.33171Z" fill="#AF91FF"/>
</svg>
